<?xml version="1.0" standalone="no"?>
<!DOCTYPE svg PUBLIC "-//W3C//DTD SVG 20010904//EN" "http://www.w3.org/TR/2001/REC-SVG-20010904/DTD/svg10.dtd">
<svg xmlns="http://www.w3.org/2000/svg" 
    xmlns:xlink="http://www.w3.org/1999/xlink"
    xmlns:krita="http://krita.org/namespaces/svg/krita"
    xmlns:sodipodi="http://sodipodi.sourceforge.net/DTD/sodipodi-0.dtd"
    width="240pt"
    height="240pt"
    viewBox="0 0 240 240">
<defs/>
<path id="shape0" transform="matrix(0.778598106643867 0 0 0.778598106643867 29.3784005348866 31.5798402139499)" fill="#a03adb" fill-rule="evenodd" stroke-opacity="0" stroke="#000000" stroke-width="0" stroke-linecap="square" stroke-linejoin="bevel" d="M67.9054 34.2779C43.7646 37.7554 31.6391 51.5716 28.1254 72.7979C-26.2238 101.548 8.76516 161.553 44.5054 161.898L199.965 161.478C247.445 153.728 259.814 91.6425 214.965 72.0779C212.391 49.1814 198.557 37.1976 175.185 34.4579C162.15 -5.15313 91.1127 -17.3432 67.9054 34.2779" sodipodi:nodetypes="ccccccc"/><path id="shape1" transform="matrix(0.778598106643867 0 0 0.778598106643867 81.0721592335503 94.5527238114225)" fill="#ffffff" fill-rule="evenodd" stroke-opacity="0" stroke="#000000" stroke-width="0" stroke-linecap="square" stroke-linejoin="bevel" d="M1.81199 0.678125C-8.70029 32.2132 29.6636 41.9298 36.492 19.7581C39.5683 9.76936 3.07522 -3.11136 1.81199 0.678125Z" sodipodi:nodetypes="css"/><path id="shape2" transform="matrix(0.778598106643867 0 0 0.778598106643867 86.4939400704 97.7902314801138)" fill="#000000" fill-rule="evenodd" stroke-opacity="0" stroke="#000000" stroke-width="0" stroke-linecap="square" stroke-linejoin="bevel" d="M2.01847 0C-7.14561 18.4833 17.3913 29.3622 25.6885 13.59C14.6425 7.248 6.75247 2.718 2.01847 0Z" sodipodi:nodetypes="ccc"/><path id="shape3" transform="matrix(-0.778598106643867 0 0 0.778598106643867 167.655368808887 94.0388491076428)" fill="#ffffff" fill-rule="evenodd" stroke-opacity="0" stroke="#000000" stroke-width="0" stroke-linecap="square" stroke-linejoin="bevel" d="M1.81199 0.678125C-8.70029 32.2132 29.6636 41.9298 36.492 19.7581C39.5683 9.76936 3.07522 -3.11136 1.81199 0.678125Z" sodipodi:nodetypes="css"/><path id="shape4" transform="matrix(-0.778598106643867 0 0 0.778598106643867 162.233587972038 97.2763567763342)" fill="#000000" fill-rule="evenodd" stroke-opacity="0" stroke="#000000" stroke-width="0" stroke-linecap="square" stroke-linejoin="bevel" d="M2.01847 0C-7.14561 18.4833 17.3913 29.3622 25.6885 13.59C14.6425 7.248 6.75247 2.718 2.01847 0Z" sodipodi:nodetypes="ccc"/><path id="shape5" transform="matrix(0.778598106643867 0 0 0.778598106643867 78.6742230203193 86.3236252576749)" fill="#200f3b" fill-rule="evenodd" stroke-opacity="0" stroke="#000000" stroke-width="0" stroke-linecap="square" stroke-linejoin="bevel" d="M9.00179 0.597235L44.1318 21.1472C50.0118 26.4072 42.6964 32.4961 38.0118 29.6672L3.06179 10.7672C-2.61049 6.52611 -0.271793 -2.38025 9.00179 0.597235Z" sodipodi:nodetypes="ccccc"/><path id="shape6" transform="matrix(-0.778598106643867 0 0 0.778598106643867 169.539431810476 86.2301935857645)" fill="#200f3b" fill-rule="evenodd" stroke-opacity="0" stroke="#000000" stroke-width="0" stroke-linecap="square" stroke-linejoin="bevel" d="M9.00179 0.597235L44.1318 21.1472C50.0118 26.4072 42.6964 32.4961 38.0118 29.6672L3.06179 10.7672C-2.61049 6.52611 -0.271793 -2.38025 9.00179 0.597235Z" sodipodi:nodetypes="ccccc"/><path id="shape7" transform="matrix(0.778598106643867 0 0 0.778598106643867 106.92670534599 118.59511901276)" fill="#200f3b" fill-rule="evenodd" stroke-opacity="0" stroke="#000000" stroke-width="0" stroke-linecap="square" stroke-linejoin="bevel" d="M5.26545 5.79904C-7.42171 16.4465 6.2135 21.35 10.8454 16.179C18.562 11.0826 25.682 10.9026 32.2054 15.639C41.9906 22.7437 45.3766 13.7845 42.7054 9.81904M42.7054 9.81904C40.6457 4.97232 22.2709 -7.167 5.26545 5.79904" sodipodi:nodetypes="cczccc"/><path id="shape8" transform="matrix(0.778598106643867 0 0 0.778598106643867 123.592952578915 90.2689694335078)" fill="none" stroke-opacity="0" stroke="#000000" stroke-width="0" stroke-linecap="square" stroke-linejoin="bevel" d="M78.15 85.05C93.2552 82.9051 105.045 76.3951 113.52 65.52C128.865 38.2691 123.455 16.4291 97.29 0C108.392 16.784 113.402 31.584 112.32 44.4C108.48 63.08 96.88 73.14 77.52 74.58L0.18 74.64L0 86.34Z" sodipodi:nodetypes="cccccccc"/><path id="shape9" transform="matrix(0.778598106643867 0 0 0.778598106643867 107.57019173929 38.7610955692586)" fill="#ffffff" fill-rule="evenodd" stroke-opacity="0" stroke="#000000" stroke-width="0" stroke-linecap="square" stroke-linejoin="bevel" d="M34.949 9.87464C43.1164 14.1047 43.3667 5.91652 39.689 3.78464C29.2445 -2.26983 9.42513 -0.0851597 3.47898 3.57464C-2.46717 7.23444 0.14587 11.8441 4.34898 10.7146C8.55209 9.58519 21.8226 3.07624 34.949 9.87464Z" sodipodi:nodetypes="cszzs"/><path id="shape10" transform="matrix(0.421525590586035 -0.195753433982786 0.35058205293795 0.754925744631022 65.0694129043726 73.1425149041172)" fill="#ffffff" fill-rule="evenodd" stroke-opacity="0" stroke="#000000" stroke-width="0" stroke-linecap="square" stroke-linejoin="bevel" d="M32.0748 9.23432C41.902 12.7328 44.4723 5.18778 40.6471 3.33359C30.9649 -1.35967 9.39871 -0.548527 3.05013 2.39266C-3.29845 5.33384 1.91746 9.03793 3.92013 9.53266C5.9228 10.0274 22.7233 5.90522 32.0748 9.23432Z" sodipodi:nodetypes="cszzs"/><circle id="shape11" transform="matrix(0.778598106643867 0 0 0.778598106643867 97.5254892441771 51.7283686186721)" r="3.12" cx="3.12" cy="3.12" fill="#ffffff" fill-rule="evenodd" stroke-opacity="0" stroke="#000000" stroke-width="0" stroke-linecap="square" stroke-linejoin="bevel"/><circle id="shape01" transform="matrix(0.778598106643867 0 0 0.778598106643867 171.074976949943 66.9577429359103)" r="2.29200254836402" cx="2.29200254836402" cy="2.29200254836402" fill="#ffffff" fill-rule="evenodd" stroke-opacity="0" stroke="#000000" stroke-width="0" stroke-linecap="square" stroke-linejoin="bevel"/><circle id="shape02" transform="matrix(0.778598106643867 0 0 0.778598106643867 189.177386108921 94.4266831300238)" r="4.18200343296113" cx="4.18200343296113" cy="4.18200343296113" fill="#ffffff" fill-rule="evenodd" stroke-opacity="0" stroke="#000000" stroke-width="0" stroke-linecap="square" stroke-linejoin="bevel"/><path id="shape12" transform="matrix(0.778598106643867 0 0 0.778598106643867 29.0889403283802 101.620924595984)" fill="#7423ad" fill-rule="evenodd" stroke-opacity="0" stroke="#000000" stroke-width="0" stroke-linecap="square" stroke-linejoin="bevel" d="M44.1571 42.96C19.5458 38.9705 11.8858 25.4505 21.1771 2.4L7.97713 0C1.27906 9.40897 -1.20094 19.409 0.537135 30L7.97713 35.88C11.7371 50.04 18.4171 59.44 28.0171 64.08L129.057 64.32L128.997 43.32C100.717 43.2 56.2371 43.8 44.1571 42.96Z" sodipodi:nodetypes="ccccccccc"/><path id="shape13" transform="matrix(-0.778598106643867 0 0 0.778598106643867 218.694223947826 101.293913403197)" fill="#7423ad" fill-rule="evenodd" stroke-opacity="0" stroke="#000000" stroke-width="0" stroke-linecap="square" stroke-linejoin="bevel" d="M44.2042 43.38C19.5929 39.3905 11.9329 25.8705 21.2242 2.82L7.00423 0C0.986156 9.68897 -1.15385 19.829 0.584228 30.42L8.02423 36.3C11.7842 50.46 18.4642 59.86 28.0642 64.5L129.104 64.74L129.044 43.74C100.764 43.62 56.2842 44.22 44.2042 43.38Z" sodipodi:nodetypes="ccccccccc"/><path id="shape14" transform="matrix(0.778598106643867 0 0 0.778598106643867 119.668807422746 118.380258221565)" fill="#200f3b" fill-rule="evenodd" stroke-opacity="0" stroke="#000000" stroke-width="0" stroke-linecap="square" stroke-linejoin="bevel" d="M116.37 8.025C121.018 7.955 124.571 5.28 127.031 0C127.977 33.2566 113.473 50.0416 83.52 50.355L0 50.355L0.12 38.715L81.48 38.835C99.2286 37.9273 113.872 29.4697 116.37 8.025Z" sodipodi:nodetypes="ccccccc"/><path id="shape15" transform="matrix(-0.778598106643867 0 0 0.778598106643867 128.264554456432 118.380258221565)" fill="#200f3b" fill-rule="evenodd" stroke-opacity="0" stroke="#000000" stroke-width="0" stroke-linecap="square" stroke-linejoin="bevel" d="M116.37 8.025C121.018 7.955 124.571 5.28 127.031 0C127.977 33.2566 113.473 50.0416 83.52 50.355L0 50.355L0.12 38.715L81.48 38.835C99.2286 37.9273 113.872 29.4697 116.37 8.025Z" sodipodi:nodetypes="ccccccc"/>
</svg>
